<svg width="11" height="11" viewBox="0 0 11 11" fill="none" xmlns="http://www.w3.org/2000/svg">
<path d="M0.253391 2.538C0.253391 1.87533 0.477391 1.362 0.925391 0.998C1.37339 0.624666 2.05006 0.438 2.95539 0.438C3.55272 0.438 4.10339 0.508 4.60739 0.647999V1.866C4.05672 1.70733 3.51539 1.628 2.98339 1.628C2.45139 1.628 2.08272 1.712 1.87739 1.88C1.68139 2.048 1.58339 2.3 1.58339 2.636V7.886C1.58339 8.21267 1.68606 8.46 1.89139 8.628C2.09672 8.796 2.47472 8.88 3.02539 8.88C3.57606 8.88 4.11739 8.80533 4.64939 8.656V9.846C4.16406 9.99533 3.59472 10.07 2.94139 10.07C1.14939 10.07 0.253391 9.37 0.253391 7.97V2.538ZM5.84519 2.608C5.84519 1.92667 6.07385 1.39467 6.53119 1.012C6.99785 0.629333 7.70252 0.438 8.64519 0.438C9.27985 0.438 9.87252 0.517333 10.4232 0.676V1.936C9.86319 1.74933 9.27519 1.656 8.65919 1.656C7.66985 1.656 7.17519 2.01067 7.17519 2.72V7.872C7.17519 8.544 7.58585 8.88 8.40719 8.88C8.86452 8.88 9.20985 8.80067 9.44319 8.642V5.212H10.7452V9.51C10.0639 9.88333 9.29852 10.07 8.44919 10.07C7.60919 10.07 6.96519 9.89733 6.51719 9.552C6.06919 9.19733 5.84519 8.67 5.84519 7.97V2.608Z" fill="black"/>
</svg>
